HIERARCHY
ROOT Hip
{
  OFFSET 0.0 0.0 0.0
  CHANNELS 6 Xposition Yposition Zposition Xrotation Yrotation Zrotation
  JOINT LowerSpine
  {
    OFFSET 0.0 0.061367 -0.03653
    CHANNELS 3 Xrotation Yrotation Zrotation
    JOINT MiddleSpine
    {
      OFFSET 0.0 0.056002 0.002633
      CHANNELS 3 Xrotation Yrotation Zrotation
      JOINT Chest
      {
        OFFSET 0.0 0.069296 -0.013882
        CHANNELS 3 Xrotation Yrotation Zrotation
        JOINT Neck
        {
          OFFSET 0.0 0.156156 -0.002923
          CHANNELS 3 Xrotation Yrotation Zrotation
          JOINT Head
          {
            OFFSET 0.0 0.088183 0.023986
            CHANNELS 3 Xrotation Yrotation Zrotation
            End Site
            {
              OFFSET 1e-06 0.123215 0.003678
            }
          }
        }
        JOINT LClavicle
        {
          OFFSET 0.014189 0.150698 0.046467
          CHANNELS 3 Xrotation Yrotation Zrotation
          JOINT LShoulder
          {
            OFFSET 0.082893 0.021616 -0.034976
            CHANNELS 3 Xrotation Yrotation Zrotation
            JOINT LForearm
            {
              OFFSET 0.195645 -0.000695 -0.001695
              CHANNELS 3 Xrotation Yrotation Zrotation
              JOINT LHand
              {
                OFFSET 0.163209 0.000474 -0.000977
                CHANNELS 3 Xrotation Yrotation Zrotation
                End Site
                {
                  OFFSET 0.0 0.006864 0.0
                }
              }
            }
          }
        }
        JOINT RClavicle
        {
          OFFSET -0.014189 0.150698 0.046467
          CHANNELS 3 Xrotation Yrotation Zrotation
          JOINT RShoulder
          {
            OFFSET -0.082908 0.021619 -0.034982
            CHANNELS 3 Xrotation Yrotation Zrotation
            JOINT RForearm
            {
              OFFSET -0.195645 -0.000695 -0.001695
              CHANNELS 3 Xrotation Yrotation Zrotation
              JOINT RHand
              {
                OFFSET -0.163209 0.000474 -0.000977
                CHANNELS 3 Xrotation Yrotation Zrotation
                End Site
                {
                  OFFSET 0.0 0.006864 0.0
                }
              }
            }
          }
        }
      }
    }
  }
  JOINT RThigh
  {
    OFFSET -0.072558 0.02774 -0.005953
    CHANNELS 3 Xrotation Yrotation Zrotation
    JOINT RShin
    {
      OFFSET -0.005253 -0.285537 0.0
      CHANNELS 3 Xrotation Yrotation Zrotation
      JOINT RFoot
      {
        OFFSET 0.0 -0.28038 0.0
        CHANNELS 3 Xrotation Yrotation Zrotation
        JOINT RToe
        {
          OFFSET 0.0 -0.030816 0.064441
          CHANNELS 3 Xrotation Yrotation Zrotation
          End Site
          {
            OFFSET 0.0 0.0 0.043231
          }
        }
      }
    }
  }
  JOINT LThigh
  {
    OFFSET 0.072557 0.027741 -0.005953
    CHANNELS 3 Xrotation Yrotation Zrotation
    JOINT LShin
    {
      OFFSET 0.005253 -0.285539 0.0
      CHANNELS 3 Xrotation Yrotation Zrotation
      JOINT LFoot
      {
        OFFSET 0.0 -0.28038 0.0
        CHANNELS 3 Xrotation Yrotation Zrotation
        JOINT LToe
        {
          OFFSET 0.0 -0.030816 0.064441
          CHANNELS 3 Xrotation Yrotation Zrotation
          End Site
          {
            OFFSET 0.0 0.0 0.043231
          }
        }
      }
    }
  }
}
MOTION
Frames: 18
Frame Time: 0.03333333333333333
0.00464 0.585076 -0.001108 6.039636 15.350634 -2.430274 -0.979416 -0.05044 -0.157851 -0.886232 0.459534 0.284326 -7.429659 1.396393 0.352828 -1.633017 -0.066804 0.156129 -0.018228 0.052299 0.004757 0.288555 0.384703 -13.208234 24.88685 -27.305292 -53.468327 13.431534 -24.743696 -1.612387 0.065743 0.064264 -0.07276 0.315664 0.614228 13.855211 19.565544 33.804142 54.642799 8.966059 19.739046 3.095612 0.112684 -0.101553 0.000809 -7.769969 -3.86218 1.099 19.670031 -2.094418 0.9153 -0.362029 0.920325 0.353502 -0.24345 0.140883 0.031079 -6.818435 5.935523 -0.813945 15.836349 4.228436 -2.613082 -0.414669 -1.155664 -0.490172 -0.092392 -0.034808 -0.006106 
4.5e-05 0.585913 0.000277 7.701812 21.541775 -2.498683 -1.10498 -0.114581 -0.046239 -1.316776 0.205535 0.50889 -8.434574 0.380517 -0.029172 -1.348733 -0.096711 0.029495 -0.001008 0.151859 0.025454 0.421682 0.883469 -13.417593 28.091469 -27.286873 -50.703983 16.743952 -23.894405 -2.726744 -0.002346 -0.012762 -0.011372 0.448953 0.939766 13.824237 25.016893 34.797756 49.752029 12.108334 23.571716 4.234572 0.147016 -0.11357 0.01397 -8.916866 -3.402746 -0.056836 22.880396 -1.918727 0.795972 0.312578 0.97311 0.596473 -0.246863 0.019426 0.004555 -8.335985 6.952984 -1.993425 13.895607 6.200902 -2.152558 0.56868 -1.420819 -0.675166 -0.051907 0.008275 0.006615 
0.0105 0.58253 0.010821 6.925205 19.621439 -2.76282 -0.940044 -0.297397 0.041174 -1.386555 0.21816 0.654129 -8.705268 -0.299415 -0.528606 -0.911054 0.027284 -0.005577 0.017394 0.019028 0.019138 0.464505 0.619313 -14.392452 27.487534 -29.067144 -52.199142 16.597031 -21.470129 -3.158535 0.012511 0.025061 -0.020728 0.381277 0.812936 13.397822 25.94677 34.966179 50.021442 13.770609 28.291597 4.796003 0.049746 -0.10419 0.005573 -7.931559 -4.297948 -0.276629 23.171373 -2.55743 0.518637 0.368194 0.734812 0.261621 -0.258289 0.089308 0.060971 -7.731679 6.740533 -2.525286 11.28368 6.098048 -1.596107 0.241783 -1.108524 -0.310058 -0.014066 -0.006182 0.000626 
0.016586 0.577775 0.00981 5.942949 17.139462 -3.624875 -0.847096 -0.378213 0.137677 -1.401795 0.19338 0.749613 -8.057456 -0.891647 -1.032612 -0.665058 0.100919 -0.02496 0.029218 -0.100753 0.008312 0.366662 0.295075 -14.833127 26.252569 -30.288601 -53.926548 16.103619 -19.272249 -3.041204 0.032954 0.067051 -0.046775 0.310858 0.773442 12.732444 25.985167 34.904968 49.976585 14.953682 34.793556 4.797509 -0.042432 -0.09508 -0.007645 -6.536787 -5.167953 -0.041614 22.498083 -3.194702 0.340953 0.757327 0.590042 0.077281 -0.281045 0.128117 0.103952 -6.551729 5.69854 -2.427447 8.523168 5.094555 -1.124073 -0.101735 -0.94848 -0.097794 0.028342 -0.047703 -0.027092 
0.019104 0.580215 0.009246 5.405126 14.484627 -3.801968 -0.886576 -0.349545 0.261114 -1.421642 0.145454 0.822318 -7.725873 -1.494172 -1.075927 -0.540794 0.128262 -0.077157 0.036263 -0.150838 0.005353 0.220724 0.149265 -15.034389 26.084635 -30.169479 -55.049862 15.516327 -18.495588 -2.972955 0.039195 0.079809 -0.051381 0.32752 0.936139 12.291167 26.654675 33.78603 48.881668 14.956054 41.923874 5.504148 -0.084871 -0.079182 -0.013756 -5.942661 -5.462085 0.296794 21.66263 -3.48661 0.194225 1.057952 0.566671 0.048871 -0.305432 0.11118 0.112101 -5.9871 4.861401 -2.58694 6.595416 4.435688 -0.774436 -0.189728 -0.861789 0.009014 0.043908 -0.068208 -0.04321 
0.019649 0.581671 0.016437 5.179577 12.493841 -3.699444 -0.984877 -0.279684 0.3773 -1.443945 0.109779 0.88249 -7.521064 -1.865625 -0.934697 -0.556737 0.143136 -0.129514 0.040679 -0.172629 0.002987 0.112782 0.078526 -15.110234 26.68442 -29.510973 -55.417194 14.748466 -19.163303 -3.146103 0.040793 0.082153 -0.052782 0.345217 1.142148 12.072228 27.807615 31.74049 47.651287 14.273992 47.761784 6.409812 -0.093509 -0.074102 -0.016169 -5.726547 -5.584331 0.694323 20.67503 -3.595367 0.056163 1.128943 0.631582 0.084859 -0.319918 0.088577 0.108982 -5.767673 4.165461 -2.804116 5.783148 4.015595 -0.645579 -0.152448 -0.824226 0.070507 0.045596 -0.078064 -0.051215 
0.017463 0.578087 0.026604 5.066542 10.921828 -3.447189 -1.016694 -0.226167 0.425581 -1.465841 0.073266 0.904251 -7.607886 -2.1232 -0.74848 -0.568686 0.149958 -0.146928 0.041475 -0.171789 0.001641 0.050851 0.062167 -15.086995 27.141232 -29.068687 -55.577679 14.345947 -19.770329 -3.236264 0.038961 0.076768 -0.051248 0.34491 1.240436 12.010445 28.387041 30.198671 47.201721 13.752647 50.172005 6.923305 -0.085622 -0.074644 -0.016614 -5.930969 -5.808342 0.837756 20.319895 -3.731652 0.102312 1.093728 0.669356 0.111257 -0.322954 0.071036 0.101951 -5.999003 3.746503 -2.933066 5.583256 3.771154 -0.622787 -0.113866 -0.799649 0.087462 0.041172 -0.080136 -0.052856 
0.015167 0.572744 0.036652 5.1614 9.220459 -3.262958 -0.999151 -0.204944 0.413448 -1.493852 0.006745 0.907658 -7.909662 -2.427335 -0.677633 -0.565925 0.152666 -0.12352 0.041133 -0.158451 0.002182 0.03933 0.084959 -15.045724 26.998547 -29.526188 -55.636078 14.233796 -19.637211 -3.156902 0.036661 0.071572 -0.047544 0.323744 1.285183 12.026945 28.738758 29.942699 47.268291 13.704096 49.497753 6.814827 -0.073253 -0.074311 -0.015957 -6.572437 -5.939209 0.863392 20.380062 -3.856064 0.244549 1.048881 0.669322 0.119437 -0.308494 0.067269 0.097772 -6.357537 3.445975 -2.894824 5.814891 3.575599 -0.603134 -0.173249 -0.74574 0.094388 0.034227 -0.072129 -0.04759 
0.013784 0.567827 0.0442 5.311001 7.147329 -3.089795 -0.933462 -0.218343 0.350736 -1.519687 -0.078427 0.872921 -8.294755 -2.778734 -0.763856 -0.535456 0.147239 -0.063787 0.039015 -0.13196 0.004022 0.049084 0.140901 -15.053596 26.29496 -30.599733 -55.584572 14.192666 -18.856197 -2.966447 0.033463 0.065091 -0.042436 0.300889 1.251067 12.089958 28.693573 30.722479 47.810875 13.926686 46.674335 6.153935 -0.053287 -0.077814 -0.014097 -7.717285 -5.981105 0.881931 20.693228 -3.932805 0.454325 1.018568 0.655155 0.125129 -0.276403 0.074001 0.094248 -6.435225 3.321072 -2.793267 6.337079 3.470792 -0.668513 -0.315429 -0.663106 0.093601 0.021458 -0.05708 -0.036746 
0.014223 0.563499 0.049898 5.532882 4.342009 -3.008014 -0.85416 -0.26634 0.240349 -1.511417 -0.172338 0.836325 -8.788189 -3.140732 -0.882526 -0.519014 0.13011 0.00558 0.035736 -0.092546 0.00637 0.081626 0.207875 -15.052021 25.327148 -32.185265 -55.515396 14.26575 -17.897778 -2.763259 0.030281 0.058897 -0.036779 0.291095 1.154032 12.153766 28.584789 32.038857 48.606709 14.149346 42.832382 5.170197 -0.01634 -0.092521 -0.009689 -8.973038 -6.265937 0.866707 20.827213 -4.058245 0.762638 1.055318 0.67543 0.152197 -0.236797 0.085395 0.089355 -6.35119 3.103665 -2.652374 7.23184 3.349988 -0.769336 -0.450988 -0.573242 0.096532 0.00318 -0.034878 -0.019856 
0.017732 0.559093 0.05489 5.867111 1.454625 -3.403061 -0.820247 -0.318998 0.143675 -1.467652 -0.24902 0.800688 -8.830089 -3.329208 -1.055008 -0.575614 0.109716 0.049372 0.030928 -0.072616 0.007283 0.162524 0.205038 -15.087397 24.281324 -33.543327 -55.07716 13.627876 -17.247917 -2.642385 0.029662 0.059161 -0.036301 0.240309 1.103868 12.150073 28.735491 32.851219 49.158817 14.476066 39.757675 4.321974 0.017951 -0.11321 -0.004727 -10.47005 -6.801906 0.962245 20.939484 -4.191312 1.003885 1.172877 0.743821 0.179148 -0.20708 0.108254 0.086183 -5.869477 2.771672 -2.642473 7.64931 3.042781 -0.929609 -0.613336 -0.596013 0.091504 -0.026055 -0.021814 -0.006669 
0.020233 0.555303 0.060148 6.039171 -0.868477 -3.794069 -0.831095 -0.387409 0.057693 -1.37606 -0.315001 0.769627 -8.522714 -3.344698 -1.24323 -0.66746 0.096323 0.089015 0.025901 -0.069287 0.008 0.237466 0.139377 -15.185321 23.018473 -34.474224 -54.909691 12.561632 -16.438072 -2.432973 0.03002 0.064164 -0.039334 0.15306 1.126794 12.127936 28.406147 33.444122 50.347698 14.720339 36.580418 3.587565 0.03141 -0.128712 -0.001324 -11.967031 -7.2748 1.192991 20.349005 -4.265959 1.206494 1.298698 0.865059 0.191844 -0.183982 0.135748 0.085274 -4.87581 2.438592 -2.512483 8.297202 2.674549 -1.207039 -0.893157 -0.649512 0.083409 -0.06102 -0.021471 -0.000206 
0.017493 0.551973 0.066481 6.118037 -2.661727 -3.5123 -0.84898 -0.447626 -0.020473 -1.302637 -0.341274 0.740289 -8.179987 -3.301369 -1.323435 -0.724197 0.091116 0.109466 0.020744 -0.060919 0.009639 0.331942 0.09113 -15.213906 22.028427 -34.923634 -54.501904 11.608174 -15.986691 -2.233164 0.025064 0.059193 -0.03574 0.074782 1.158649 12.172754 27.94681 34.145145 51.496521 14.818763 33.230873 3.129976 0.046839 -0.139556 0.002109 -13.521462 -7.557644 1.594851 20.018385 -4.184453 1.330071 1.207669 0.988464 0.206747 -0.165921 0.15425 0.079252 -3.793271 2.225876 -2.365236 9.430166 2.481807 -1.56955 -1.078165 -0.719668 0.060874 -0.098972 -0.016039 0.005339 
0.01093 0.548981 0.073347 6.362817 -3.459837 -2.602512 -0.843017 -0.527901 -0.104952 -1.2961 -0.333588 0.748774 -8.131972 -3.231346 -1.168463 -0.765449 0.089924 0.10975 0.015324 -0.062265 0.009017 0.456437 0.01856 -15.208859 21.399448 -35.365021 -54.171848 11.061051 -16.251657 -2.117036 0.02216 0.057556 -0.036241 0.001983 1.12743 12.225672 27.680769 34.273819 52.645641 14.835398 30.116488 2.780911 0.059224 -0.149308 0.003105 -15.047115 -7.949821 1.916137 19.453911 -4.181021 1.387685 0.963082 1.120406 0.190762 -0.164895 0.168276 0.07785 -3.511728 1.980776 -2.17986 11.166117 2.395905 -1.95809 -1.152177 -0.800454 0.039309 -0.136801 -0.009679 0.01 
0.002881 0.545907 0.080072 6.720618 -2.960362 -1.562444 -0.863756 -0.632396 -0.197898 -1.371041 -0.29506 0.753527 -8.150712 -3.277863 -1.062224 -0.771738 0.082938 0.087878 0.01105 -0.054622 0.00973 0.537802 0.022496 -15.146276 20.972683 -35.442772 -53.748055 10.661234 -17.434387 -2.075388 0.017613 0.055633 -0.031221 -0.061665 1.067161 12.299074 27.472988 33.996304 54.157681 14.835287 27.204941 2.457012 0.075438 -0.14936 0.005052 -17.700043 -8.323054 2.080214 18.461704 -4.211858 1.375569 0.991015 1.295765 0.215957 -0.165785 0.162205 0.073932 -3.181902 1.941747 -2.036547 12.822252 2.663363 -2.286498 -1.187201 -0.912824 -0.022283 -0.185014 0.001631 0.018171 
-0.005063 0.542823 0.091033 6.748322 -2.909323 -0.369427 -0.906231 -0.742522 -0.248481 -1.440397 -0.301688 0.763486 -8.292812 -3.526306 -0.980556 -0.759837 0.072773 0.060951 0.006653 -0.041406 0.015708 0.615786 0.10724 -15.248698 20.594 -35.080135 -53.745289 9.908441 -18.795752 -2.029715 0.011041 0.048495 -0.021889 -0.09758 0.992041 12.348819 27.214542 32.247295 56.368626 14.136115 24.926743 1.991796 0.081308 -0.136887 0.004853 -19.735151 -8.56707 2.447743 16.026644 -4.206396 1.145683 1.123006 1.58068 0.292035 -0.166837 0.139795 0.069275 -2.229462 2.235047 -1.972378 13.888192 3.024829 -2.35956 -1.243347 -0.928709 -0.048319 -0.239947 0.008454 0.023745 
-0.012076 0.539668 0.108809 6.750445 -3.638255 1.138756 -1.058536 -0.846722 -0.270395 -1.493067 -0.336832 0.734793 -8.682001 -3.8734 -0.902578 -0.85113 0.073163 0.03624 0.003371 -0.034381 0.023551 0.711699 0.295125 -15.482026 20.686045 -34.5975 -53.773769 9.160699 -20.59651 -1.995342 0.001402 0.033814 -0.00581 -0.079222 0.897893 12.594841 26.96176 30.026468 58.851772 12.935982 22.473085 1.768105 0.07678 -0.110334 0.00336 -21.615017 -8.671561 2.814908 13.020491 -4.219156 0.784899 1.25394 1.958909 0.430091 -0.166311 0.104503 0.064859 -0.76222 2.798799 -1.922475 14.170268 3.483628 -2.425049 -1.320114 -0.88631 -0.076134 -0.305569 0.021413 0.032062 
-0.013444 0.537412 0.134326 7.030048 -4.262022 1.788339 -1.212614 -0.950115 -0.301204 -1.539454 -0.373972 0.713701 -8.845592 -4.248353 -0.936129 -0.984958 0.075481 0.051066 0.005616 -0.042898 0.025831 0.82831 0.447102 -15.723934 20.746922 -34.785435 -53.319935 9.108661 -22.714941 -1.88228 -0.00373 0.02845 0.005583 -0.077314 0.745887 12.956672 26.996269 28.286236 60.878857 12.127038 20.52841 1.478458 0.053545 -0.08559 -3.6e-05 -23.847322 -8.959599 2.951396 11.177543 -4.528874 0.596703 1.658799 2.319108 0.564148 -0.16171 0.08592 0.069769 0.467469 3.720871 -1.542528 14.229484 4.022292 -2.540513 -1.334733 -0.879152 -0.095499 -0.367234 0.026635 0.035432 
